<svg width="102" height="102" viewBox="0 0 102 102" fill="none" xmlns="http://www.w3.org/2000/svg">
<rect width="102" height="102" fill="url(#paint0_linear_602_865)"/>
<path d="M74.1389 21.25H60.3217C58.9333 17.4156 55.2972 14.6389 51 14.6389C46.7028 14.6389 43.0667 17.4156 41.6783 21.25H27.8611C24.225 21.25 21.25 24.225 21.25 27.8611V74.1389C21.25 77.775 24.225 80.75 27.8611 80.75H74.1389C77.775 80.75 80.75 77.775 80.75 74.1389V27.8611C80.75 24.225 77.775 21.25 74.1389 21.25ZM51 21.25C52.8181 21.25 54.3056 22.7375 54.3056 24.5556C54.3056 26.3736 52.8181 27.8611 51 27.8611C49.1819 27.8611 47.6944 26.3736 47.6944 24.5556C47.6944 22.7375 49.1819 21.25 51 21.25Z" fill="#FAFAFA"/>
<path d="M72.9251 41.7643L47.773 67.2486C47.2786 67.7495 46.6916 68 46.0118 68C45.332 68 44.7449 67.7495 44.2505 67.2486L30.9638 53.7864C30.4694 53.2854 30.2222 52.6906 30.2222 52.0018C30.2222 51.3131 30.4694 50.7182 30.9638 50.2173L34.3627 46.7735C34.8571 46.2726 35.4442 46.0221 36.124 46.0221C36.8038 46.0221 37.3909 46.2726 37.8853 46.7735L46.0118 55.0074L66.0036 34.7514C66.498 34.2505 67.0851 34 67.7649 34C68.4447 34 69.0318 34.2505 69.5262 34.7514L72.9251 38.1952C73.4195 38.6961 73.6667 39.291 73.6667 39.9797C73.6667 40.6685 73.4195 41.2633 72.9251 41.7643Z" fill="#A55786"/>
<defs>
<linearGradient id="paint0_linear_602_865" x1="0" y1="0" x2="102" y2="102" gradientUnits="userSpaceOnUse">
<stop stop-color="#E34CA7"/>
<stop offset="1" stop-color="#7B5D6F"/>
</linearGradient>
</defs>
</svg>
