<svg width="293" height="476" viewBox="0 0 293 476" fill="none" xmlns="http://www.w3.org/2000/svg">
<path d="M274.32 24.8996H0.0898438L18.1363 398.368H292.367L274.32 24.8996Z" fill="#B899AC"/>
<path opacity="0.2" d="M262.377 37.4619H15.1623L32.4355 381.487L247.399 381.202L283.124 349.534L262.377 37.4619Z" fill="black"/>
<path d="M264.268 37.45C266.904 140.478 275.224 243.283 289.191 345.394C269.602 358.877 250.112 372.359 230.721 385.841H45.8306C28.3794 270.461 18.1368 154.105 15.1623 37.45H264.268Z" fill="white"/>
<path d="M289.191 345.394C269.602 358.877 250.112 372.359 230.721 385.841C234.956 367.997 239.369 350.153 243.961 332.309L289.191 345.394Z" fill="#EBEBEB"/>
<path d="M82.1972 68.9273C82.6651 81.5214 83.2124 94.1234 83.8389 106.733H46.0447C45.4103 94.1234 44.8631 81.5214 44.4031 68.9273H82.1972ZM86.0516 64.9421H40.2751C40.8065 80.193 41.4687 95.4518 42.2618 110.719H88.0501C87.257 95.4597 86.5948 80.2009 86.0635 64.9421H86.0516Z" fill="#D7D7D7"/>
<path d="M236.633 83.1194H107.179C107.06 80.2762 106.953 77.4212 106.846 74.578H236.288C236.395 77.4212 236.514 80.2762 236.633 83.1194Z" fill="#E0E0E0"/>
<path d="M209.284 101.083H107.976C107.845 98.2276 107.703 95.3844 107.584 92.5412H208.88C209.014 95.3883 209.149 98.2355 209.284 101.083Z" fill="#E0E0E0"/>
<path d="M85.9088 142.969C86.7019 155.579 87.5862 168.189 88.5617 180.799H50.7556C49.7801 168.189 48.8959 155.579 48.1028 142.969H85.9088ZM89.6442 138.984H43.8677C44.8036 154.251 45.8703 169.517 47.0678 184.784H92.9038C91.7142 169.525 90.6435 154.259 89.6918 138.984H89.6442Z" fill="#D7D7D7"/>
<path d="M158.809 157.173H111.224C111.034 154.318 110.831 151.475 110.653 148.62H158.238C158.416 151.475 158.606 154.318 158.809 157.173Z" fill="#E0E0E0"/>
<path d="M203.859 157.173H168.873C168.682 154.318 168.48 151.475 168.302 148.62H203.288C203.467 151.475 203.657 154.318 203.859 157.173Z" fill="#E0E0E0"/>
<path d="M225.82 175.148H112.532C112.318 172.293 112.116 169.45 111.902 166.595H225.189C225.403 169.45 225.606 172.293 225.82 175.148Z" fill="#E0E0E0"/>
<path d="M91.5833 217.047C92.7174 229.656 93.9387 242.266 95.2473 254.876H57.4413C56.1327 242.266 54.9113 229.656 53.7772 217.047H91.5833ZM95.2235 213.061H49.4351C50.7834 228.336 52.2585 243.607 53.8605 258.873H99.6489C98.0627 243.599 96.5876 228.328 95.2235 213.061Z" fill="#D7D7D7"/>
<path d="M247.673 240.684H118.207L119.063 249.226H248.53L247.673 240.684Z" fill="#E0E0E0"/>
<path d="M217.814 222.709H116.506C116.767 225.552 117.029 228.407 117.303 231.251H218.599C218.337 228.407 218.063 225.588 217.814 222.709Z" fill="#E0E0E0"/>
<path d="M99.2325 291.124C100.708 303.734 102.266 316.34 103.908 328.942H66.1017C64.46 316.348 62.9016 303.742 61.4265 291.124H99.2325ZM102.801 287.139H56.9773C58.7221 302.414 60.6057 317.676 62.628 332.927H108.369C106.362 317.676 104.479 302.414 102.718 287.139H102.801Z" fill="#D7D7D7"/>
<path d="M254.799 305.292H125.333C124.988 302.437 124.643 299.594 124.31 296.739H253.764C254.109 299.63 254.442 302.473 254.799 305.292Z" fill="#E0E0E0"/>
<path d="M186.515 323.291H127.581C127.212 320.448 126.855 317.593 126.499 314.75H185.432C185.789 317.593 186.146 320.448 186.515 323.291Z" fill="#E0E0E0"/>
<path d="M221.704 323.291H196.258C195.889 320.448 195.532 317.593 195.175 314.75H220.621C220.978 317.593 221.382 320.448 221.704 323.291Z" fill="#E0E0E0"/>
<path d="M65.5426 101.332L63.8652 98.6677C60.2012 92.8386 52.7304 87.64 50.1489 86.1173L52.0761 82.7031C57.1407 85.7786 61.6659 89.6648 65.4712 94.2067C71.2289 86.3671 79.7466 78.2658 91.4049 69.5578L93.8674 72.7698C81.424 82.0845 72.716 90.614 67.2199 98.8224L65.5426 101.332Z" fill="#D7D7D7"/>
<path d="M70.0631 175.398L68.3144 172.733C64.5076 166.904 56.8941 161.694 54.2769 160.171L56.097 156.757C61.2582 159.833 65.8897 163.722 69.8133 168.272C75.3569 160.421 83.6485 152.319 95.0808 143.6C95.9254 144.67 96.7819 145.741 97.6265 146.823C85.433 156.15 76.951 164.668 71.681 172.888C71.1338 173.721 70.5984 174.565 70.0631 175.398Z" fill="#D7D7D7"/>
<path d="M76.6298 249.666L74.8097 247.001C70.8364 241.172 63.0801 235.961 60.4272 234.451C60.9982 233.261 61.6168 232.167 62.1641 231.036C67.4057 234.118 72.1339 237.999 76.1778 242.54C81.5191 234.689 89.5966 226.599 100.779 217.867L103.42 221.091C91.5238 230.418 83.1965 238.935 78.1644 247.156L76.6298 249.666Z" fill="#D7D7D7"/>
<path d="M196.555 365.32C189.536 365.32 185.492 362.727 181.923 360.443C178.354 358.159 175.285 356.184 169.36 356.184C163.436 356.184 160.795 358.254 158 360.443C155.204 362.632 151.778 365.32 144.759 365.32C137.74 365.32 133.696 362.727 130.139 360.443C126.582 358.159 123.513 356.184 117.576 356.184C111.64 356.184 109.011 358.254 106.216 360.443C103.42 362.632 99.9939 365.32 92.987 365.32C85.9802 365.32 81.9236 362.727 78.3547 360.443C74.7859 358.159 71.7286 356.184 65.7924 356.184C65.6377 354.995 65.4712 353.9 65.3165 352.758C72.3353 352.758 76.3681 355.351 79.9369 357.635C83.5058 359.92 86.5631 361.894 92.4874 361.894C98.4117 361.894 101.053 359.824 103.848 357.635C106.644 355.447 110.082 352.758 117.101 352.758C124.119 352.758 128.14 355.351 131.709 357.635C135.278 359.92 138.347 361.894 144.271 361.894C150.196 361.894 152.837 359.824 155.632 357.635C158.428 355.447 161.866 352.758 168.885 352.758C175.903 352.758 179.936 355.351 183.505 357.635C187.074 359.92 190.131 361.894 196.067 361.894C196.222 363.036 196.4 364.178 196.555 365.32Z" fill="#EBEBEB"/>
<path d="M206.619 34.1429C202.598 23.4363 193.307 16.4057 183.315 16.4057H162.948C161.432 16.3925 159.953 15.9345 158.695 15.0886C157.437 14.2428 156.455 13.0462 155.87 11.6472C154.43 8.22799 152.023 5.30405 148.944 3.23492C145.864 1.1658 142.247 0.0417038 138.537 0.000867217C134.949 -0.0355265 131.442 1.07441 128.528 3.16913C125.614 5.26384 123.444 8.23399 122.335 11.6472C121.883 13.0438 120.996 14.259 119.804 15.1153C118.611 15.9715 117.176 16.4237 115.709 16.4057H95.3544C85.3497 16.4057 76.7369 23.472 73.7628 34.1429L72.5732 38.3898H208.19L206.619 34.1429Z" fill="#E34CA7"/>
<path d="M207.345 42.5773H73.8699C72.7442 42.5642 71.6653 42.1248 70.8507 41.3477C70.0361 40.5707 69.5463 39.5137 69.4802 38.3898C69.451 37.8499 69.5326 37.3096 69.72 36.8024C69.9075 36.2952 70.1968 35.8317 70.5701 35.4405C70.9435 35.0493 71.393 34.7387 71.8909 34.5278C72.3888 34.3169 72.9247 34.2102 73.4654 34.2143H206.94C208.064 34.2272 209.141 34.6649 209.956 35.4394C210.77 36.214 211.261 37.2681 211.33 38.3898C211.361 38.9307 211.281 39.4723 211.094 39.9809C210.907 40.4895 210.618 40.9545 210.245 41.347C209.871 41.7394 209.421 42.0511 208.922 42.2627C208.424 42.4744 207.887 42.5814 207.345 42.5773Z" fill="#BCBDFF"/>
<path d="M207.345 42.5773H73.8699C72.7442 42.5642 71.6653 42.1248 70.8507 41.3477C70.0361 40.5707 69.5463 39.5137 69.4802 38.3898C69.451 37.8499 69.5326 37.3096 69.72 36.8024C69.9075 36.2952 70.1968 35.8317 70.5701 35.4405C70.9435 35.0493 71.393 34.7387 71.8909 34.5278C72.3888 34.3169 72.9247 34.2102 73.4654 34.2143H206.94C208.064 34.2272 209.141 34.6649 209.956 35.4394C210.77 36.214 211.261 37.2681 211.33 38.3898C211.361 38.9307 211.281 39.4723 211.094 39.9809C210.907 40.4895 210.618 40.9545 210.245 41.347C209.871 41.7394 209.421 42.0511 208.922 42.2627C208.424 42.4744 207.887 42.5814 207.345 42.5773Z" fill="#B63D86"/>
<path d="M183.997 466.265H175.277L174.409 446.077H183.129L183.997 466.265Z" fill="#FFC3BD"/>
<path d="M236.328 466.265H227.608L223.231 446.077H231.939L236.328 466.265Z" fill="#FFC3BD"/>
<path d="M226.99 465.253H236.78C236.953 465.252 237.121 465.311 237.255 465.419C237.389 465.528 237.482 465.679 237.518 465.848L239.243 473.604C239.282 473.793 239.278 473.987 239.232 474.174C239.186 474.36 239.099 474.534 238.977 474.683C238.855 474.831 238.701 474.95 238.527 475.031C238.352 475.112 238.162 475.153 237.97 475.151C234.556 475.091 232.89 474.889 228.584 474.889C225.931 474.889 220.471 475.163 216.819 475.163C213.166 475.163 212.679 471.594 214.178 471.225C220.899 469.75 223.421 467.728 225.574 465.789C225.965 465.444 226.468 465.254 226.99 465.253Z" fill="#263238"/>
<path d="M175.337 465.253H184.854C185.026 465.252 185.194 465.311 185.328 465.419C185.463 465.528 185.555 465.679 185.591 465.848L187.316 473.604C187.358 473.786 187.36 473.975 187.32 474.158C187.281 474.34 187.201 474.511 187.087 474.659C186.974 474.807 186.828 474.928 186.662 475.013C186.496 475.098 186.313 475.145 186.126 475.151C182.688 475.091 177.728 474.889 173.409 474.889C168.365 474.889 164.011 475.163 158.087 475.163C154.518 475.163 153.519 471.594 155.018 471.225C161.834 469.726 167.402 469.572 173.29 465.931C173.9 465.527 174.606 465.292 175.337 465.253Z" fill="#263238"/>
<path d="M192.42 148.268C191.23 154.644 190.54 162.543 195.001 166.802C195.001 166.802 192.443 173.274 180.595 173.274C169.769 173.274 175.194 166.802 175.194 166.802C182.332 165.101 181.927 156.31 180.69 151.337L192.42 148.268Z" fill="#FFC3BD"/>
<path d="M171.791 167.694C172.029 166.112 174.813 164.268 177.977 163.578C181.142 162.888 193.3 161.354 197.011 162.888C200.723 164.423 196.369 168.967 196.369 168.967L171.791 167.694Z" fill="#D7D7D7"/>
<path d="M171.791 167.694C172.029 166.112 174.813 164.268 177.977 163.578C181.142 162.888 193.3 161.354 197.011 162.888C200.723 164.423 196.369 168.967 196.369 168.967L171.791 167.694Z" fill="#B63D86"/>
<path opacity="0.2" d="M174.409 446.089L174.861 456.486H183.581L183.129 446.089H174.409Z" fill="black"/>
<path opacity="0.2" d="M231.95 446.089H223.231L225.491 456.486H234.211L231.95 446.089Z" fill="black"/>
<path d="M213.059 174.654L202.555 181.672C202.555 181.672 217.639 208.498 216.378 212.793C214.653 218.646 212.25 231.434 208.979 237.929C209.407 239.333 211.584 242.533 212.798 243.08C221.125 236.752 229.536 216.909 229.226 211.353C228.501 198.755 213.059 174.654 213.059 174.654Z" fill="#FFC3BD"/>
<path d="M208.979 237.953L200.652 237.311L205.018 246.483C205.018 246.483 212.286 246.804 213.5 241.248L208.979 237.953Z" fill="#FFC3BD"/>
<path d="M193.954 241.486L198.308 249.599L205.053 246.483L200.687 237.311L193.954 241.486Z" fill="#B55B52"/>
<path d="M210.561 168.777C218.805 169.967 228.251 198.517 228.251 198.517L210.93 208.296C210.93 208.296 203.304 194.758 199.557 184.646C195.608 174.071 201.722 167.492 210.561 168.777Z" fill="#E34CA7"/>
<path opacity="0.2" d="M205.767 178.567C202.02 175.141 204.316 189.809 206.1 199.195C207.016 201.027 207.884 202.693 208.622 204.085C212.798 196.709 210.93 183.29 205.767 178.567Z" fill="black"/>
<path d="M161.739 169.229C161.739 169.229 151.449 195.543 161.216 244.555H207.884C208.206 237.418 203.709 202.491 210.609 168.777C205.454 167.782 200.241 167.122 195.001 166.802C188.404 166.421 181.791 166.421 175.194 166.802C170.652 167.256 166.153 168.068 161.739 169.229Z" fill="#E34CA7"/>
<path d="M168.913 181.458L157.159 176.807C157.159 176.807 143.621 204.442 139.315 205.833C133.521 207.737 121.625 212.971 114.416 213.994C113.512 215.184 112.108 218.753 112.334 220.061C122.268 223.309 143.407 219.003 147.785 215.6C157.825 207.844 168.913 181.458 168.913 181.458Z" fill="#FFC3BD"/>
<path opacity="0.2" d="M170.233 178.318C168.294 173.845 164.582 171.977 160.716 172.631C159.217 178.115 156.683 190.166 157.147 208.32L159.919 209.652C159.919 209.652 173.552 185.967 170.233 178.318Z" fill="black"/>
<path d="M172.089 175.189C175.015 182.993 160.193 205.952 160.193 205.952L142.753 196.436C145.373 189.294 148.751 182.455 152.829 176.034C158.956 166.885 168.865 166.636 172.089 175.189Z" fill="#E34CA7"/>
<path d="M114.845 213.97L104.471 216.171L109.729 225.771C112.629 224.329 115.263 222.406 117.521 220.085L114.845 213.97Z" fill="#FFC3BD"/>
<path d="M99.5699 218.348L103.71 224.082L109.729 225.819L104.471 216.219L99.5699 218.348Z" fill="#FFC3BD"/>
<path d="M172.648 139.096C172.648 139.798 172.208 140.286 171.744 140.286C171.28 140.286 170.947 139.667 170.994 138.965C171.042 138.263 171.435 137.775 171.899 137.775C172.362 137.775 172.696 138.394 172.648 139.096Z" fill="#263238"/>
<path d="M173.267 139.155C172.306 141.251 171.061 143.205 169.567 144.961C170.026 145.332 170.562 145.598 171.135 145.74C171.709 145.882 172.306 145.896 172.886 145.782L173.267 139.155Z" fill="#ED847E"/>
<path d="M171.756 136.669C171.693 136.656 171.632 136.632 171.577 136.598C171.531 136.569 171.491 136.531 171.46 136.486C171.429 136.441 171.407 136.391 171.396 136.338C171.385 136.284 171.385 136.229 171.396 136.176C171.406 136.122 171.428 136.072 171.458 136.027C171.803 135.47 172.275 135.002 172.836 134.663C173.396 134.324 174.029 134.123 174.682 134.076C174.791 134.081 174.893 134.127 174.97 134.204C175.047 134.281 175.093 134.384 175.099 134.492C175.099 134.603 175.055 134.708 174.977 134.787C174.899 134.865 174.793 134.908 174.682 134.908C174.175 134.956 173.686 135.121 173.254 135.392C172.822 135.663 172.46 136.031 172.196 136.467C172.153 136.542 172.087 136.602 172.008 136.639C171.929 136.675 171.841 136.686 171.756 136.669Z" fill="#263238"/>
<path d="M196.298 138.489C195.275 147.078 195.108 152.146 190.504 156.334C183.569 162.615 173.16 158.058 171.589 149.327C170.186 141.475 172.101 128.758 180.737 125.808C182.638 125.15 184.675 124.989 186.655 125.34C188.635 125.691 190.493 126.542 192.051 127.812C193.61 129.083 194.819 130.731 195.562 132.599C196.305 134.468 196.558 136.495 196.298 138.489Z" fill="#FFC3BD"/>
<path d="M178.989 140.167C175.979 140.761 171.173 134.076 175.099 128.401C173.112 127.414 166.629 131.316 164.19 127.676C161.751 124.035 168.52 122.096 167.223 119.015C171.815 119.955 164.249 125.689 168.615 125.13C172.981 124.571 178.013 116.505 182.891 119.812C191.515 125.606 203.269 115.946 198.475 128.044C204.351 126.855 208.372 133.802 202.769 138.62C191.599 148.197 198.475 149.458 191.396 149.945C187.851 150.207 179.607 145.984 178.989 140.167Z" fill="#263238"/>
<path d="M183.45 142.415C183.038 143.274 182.458 144.041 181.745 144.673C181.032 145.304 180.2 145.786 179.298 146.091C176.919 146.912 175.551 144.782 176.11 142.439C176.61 140.321 178.489 137.347 180.952 137.561C181.492 137.614 182.011 137.802 182.46 138.107C182.909 138.412 183.275 138.824 183.523 139.307C183.772 139.79 183.895 140.328 183.883 140.871C183.87 141.413 183.721 141.944 183.45 142.415Z" fill="#FFC3BD"/>
<path d="M177.752 244.555C177.752 244.555 187.649 311.174 193.074 336.156C199.022 363.517 221.422 454.511 221.422 454.511H237.387C237.387 454.511 222.624 365.694 219.222 338.63C215.546 309.271 207.837 244.591 207.837 244.591L177.752 244.555Z" fill="#5C4152"/>
<path opacity="0.2" d="M177.752 244.555C177.752 244.555 187.649 311.174 193.074 336.156C199.022 363.517 221.422 454.511 221.422 454.511H237.387C237.387 454.511 222.624 365.694 219.222 338.63C215.546 309.271 207.837 244.591 207.837 244.591L177.752 244.555Z" fill="white"/>
<path opacity="0.2" d="M189.505 267.848C188.767 266.801 188.101 266.444 187.483 266.659H187.352C187.211 266.72 187.079 266.8 186.959 266.897C186.833 266.999 186.717 267.115 186.614 267.242L186.424 267.479L186.174 267.872C185.967 268.218 185.788 268.58 185.639 268.955C185.543 269.181 185.448 269.419 185.365 269.656C185.282 269.894 185.151 270.263 185.056 270.596C184.961 270.929 184.782 271.5 184.651 271.988C184.651 272.119 184.592 272.238 184.556 272.369C184.52 272.5 184.425 272.916 184.366 273.19C184.306 273.463 184.259 273.665 184.211 273.903C184.104 274.367 184.009 274.855 183.914 275.355C183.819 275.854 183.712 276.437 183.616 276.996C183.616 277.187 183.557 277.377 183.521 277.579C183.402 278.293 183.295 279.019 183.188 279.768C185.829 296.351 188.97 315.362 191.515 328.626C191.634 328.198 191.765 327.745 191.872 327.258C192.392 325.045 192.789 322.805 193.062 320.548C195.31 303.453 194.275 274.665 189.505 267.848Z" fill="black"/>
<path d="M161.216 244.555C161.216 244.555 160.026 309.723 160.966 336.311C161.953 363.957 171.613 454.475 171.613 454.475H186.376C186.376 454.475 186.912 365.563 187.566 338.416C188.28 308.819 191.848 244.555 191.848 244.555H161.216Z" fill="#5C4152"/>
<path opacity="0.2" d="M161.216 244.555C161.216 244.555 160.026 309.723 160.966 336.311C161.953 363.957 171.613 454.475 171.613 454.475H186.376C186.376 454.475 186.912 365.563 187.566 338.416C188.28 308.819 191.848 244.555 191.848 244.555H161.216Z" fill="white"/>
<path d="M187.352 449.955C187.411 449.955 187.352 454.773 187.352 454.773H170.328L169.615 449.36L187.352 449.955Z" fill="#263238"/>
<path d="M237.387 450.312C237.458 450.312 238.184 454.773 238.184 454.773H220.637L219.091 449.657L237.387 450.312Z" fill="#263238"/>
<path d="M224.111 466.776C223.518 466.824 222.926 466.669 222.434 466.336C222.274 466.206 222.15 466.037 222.075 465.845C222 465.653 221.976 465.445 222.005 465.241C222.007 465.123 222.039 465.006 222.1 464.904C222.16 464.802 222.247 464.717 222.35 464.659C223.314 464.171 226.133 465.848 226.454 466.086C226.487 466.11 226.512 466.143 226.527 466.181C226.542 466.219 226.546 466.26 226.538 466.3C226.532 466.34 226.514 466.378 226.486 466.407C226.458 466.437 226.423 466.458 226.383 466.467C225.639 466.653 224.877 466.756 224.111 466.776ZM222.814 464.98C222.724 464.96 222.631 464.96 222.541 464.98C222.499 465.004 222.465 465.038 222.442 465.08C222.419 465.122 222.408 465.17 222.41 465.218C222.391 465.356 222.408 465.498 222.458 465.628C222.508 465.759 222.589 465.876 222.695 465.967C223.666 466.418 224.774 466.478 225.788 466.134C224.881 465.561 223.871 465.169 222.814 464.98Z" fill="#D7D7D7"/>
<path d="M226.335 466.479C226.305 466.489 226.271 466.489 226.24 466.479C225.336 465.991 223.599 464.099 223.778 463.112C223.808 462.961 223.89 462.825 224.009 462.727C224.128 462.63 224.278 462.576 224.432 462.577C224.589 462.553 224.749 462.564 224.901 462.61C225.053 462.655 225.194 462.733 225.312 462.838C226.324 463.659 226.502 466.181 226.502 466.288C226.501 466.325 226.492 466.361 226.476 466.394C226.459 466.427 226.436 466.456 226.407 466.479C226.383 466.483 226.359 466.483 226.335 466.479ZM224.575 462.91H224.539C224.266 462.91 224.242 463.064 224.23 463.124C224.123 463.695 225.229 465.134 226.133 465.812C226.071 464.821 225.71 463.871 225.098 463.088C225.022 463.023 224.933 462.975 224.836 462.948C224.739 462.921 224.638 462.916 224.539 462.934L224.575 462.91Z" fill="#D7D7D7"/>
<path d="M171.708 466.776C170.962 466.845 170.214 466.656 169.591 466.241C169.454 466.115 169.348 465.96 169.282 465.786C169.216 465.613 169.191 465.426 169.21 465.241C169.21 465.128 169.242 465.018 169.3 464.921C169.359 464.825 169.443 464.746 169.543 464.694C170.602 464.099 174.111 465.884 174.504 466.086C174.544 466.104 174.576 466.135 174.595 466.174C174.615 466.213 174.62 466.258 174.611 466.3C174.606 466.343 174.587 466.382 174.557 466.412C174.526 466.442 174.487 466.462 174.444 466.467C173.545 466.659 172.628 466.762 171.708 466.776ZM170.126 464.98C169.995 464.974 169.865 464.999 169.745 465.051C169.706 465.074 169.673 465.107 169.65 465.147C169.627 465.186 169.615 465.231 169.615 465.277C169.598 465.398 169.612 465.522 169.655 465.636C169.699 465.751 169.771 465.852 169.864 465.931C170.4 466.407 171.839 466.49 173.766 466.169C172.628 465.571 171.398 465.169 170.126 464.98Z" fill="#D7D7D7"/>
<path d="M174.409 466.479H174.325C173.267 466.003 171.185 464.099 171.351 463.136C171.351 462.91 171.554 462.612 172.113 462.565C172.324 462.533 172.54 462.548 172.745 462.608C172.95 462.667 173.14 462.77 173.302 462.91C174.409 463.826 174.635 466.169 174.647 466.276C174.652 466.311 174.647 466.346 174.632 466.378C174.617 466.41 174.593 466.437 174.563 466.455C174.517 466.482 174.461 466.49 174.409 466.479ZM172.279 462.91H172.196C171.827 462.91 171.803 463.088 171.792 463.148C171.696 463.731 173.112 465.218 174.171 465.86C174.068 464.861 173.652 463.92 172.981 463.171C172.778 463.019 172.533 462.936 172.279 462.934V462.91Z" fill="#D7D7D7"/>
</svg>
