<svg width="54" height="54" viewBox="0 0 54 54" fill="none" xmlns="http://www.w3.org/2000/svg">
<rect width="54" height="54" rx="8" fill="url(#paint0_linear_605_6524)"/>
<path d="M39.25 11.25H31.935C31.2 9.22 29.275 7.75 27 7.75C24.725 7.75 22.8 9.22 22.065 11.25H14.75C12.825 11.25 11.25 12.825 11.25 14.75V39.25C11.25 41.175 12.825 42.75 14.75 42.75H39.25C41.175 42.75 42.75 41.175 42.75 39.25V14.75C42.75 12.825 41.175 11.25 39.25 11.25ZM27 11.25C27.9625 11.25 28.75 12.0375 28.75 13C28.75 13.9625 27.9625 14.75 27 14.75C26.0375 14.75 25.25 13.9625 25.25 13C25.25 12.0375 26.0375 11.25 27 11.25Z" fill="#FFF9ED"/>
<path d="M38.6074 22.1105L25.2916 35.6022C25.0299 35.8674 24.7191 36 24.3592 36C23.9993 36 23.6885 35.8674 23.4267 35.6022L16.3926 28.4751C16.1309 28.2099 16 27.895 16 27.5304C16 27.1657 16.1309 26.8508 16.3926 26.5856L18.192 24.7624C18.4538 24.4972 18.7646 24.3646 19.1245 24.3646C19.4844 24.3646 19.7952 24.4972 20.0569 24.7624L24.3592 29.1215L34.9431 18.3978C35.2048 18.1326 35.5156 18 35.8755 18C36.2354 18 36.5462 18.1326 36.808 18.3978L38.6074 20.221C38.8691 20.4862 39 20.8011 39 21.1657C39 21.5304 38.8691 21.8453 38.6074 22.1105Z" fill="#A55786"/>
<defs>
<linearGradient id="paint0_linear_605_6524" x1="0" y1="0" x2="54" y2="54" gradientUnits="userSpaceOnUse">
<stop stop-color="#E34CA7"/>
<stop offset="1" stop-color="#7B5D6F"/>
</linearGradient>
</defs>
</svg>
