<svg width="116" height="54" viewBox="0 0 116 54" fill="none" xmlns="http://www.w3.org/2000/svg">
<rect width="54" height="54" rx="8" fill="url(#paint0_linear_605_6523)"/>
<path d="M39.25 11.25H31.935C31.2 9.22 29.275 7.75 27 7.75C24.725 7.75 22.8 9.22 22.065 11.25H14.75C12.825 11.25 11.25 12.825 11.25 14.75V39.25C11.25 41.175 12.825 42.75 14.75 42.75H39.25C41.175 42.75 42.75 41.175 42.75 39.25V14.75C42.75 12.825 41.175 11.25 39.25 11.25ZM27 11.25C27.9625 11.25 28.75 12.0375 28.75 13C28.75 13.9625 27.9625 14.75 27 14.75C26.0375 14.75 25.25 13.9625 25.25 13C25.25 12.0375 26.0375 11.25 27 11.25Z" fill="#FFF9ED"/>
<path d="M38.6074 22.1105L25.2916 35.6022C25.0299 35.8674 24.7191 36 24.3592 36C23.9993 36 23.6885 35.8674 23.4267 35.6022L16.3926 28.4751C16.1309 28.2099 16 27.895 16 27.5304C16 27.1657 16.1309 26.8508 16.3926 26.5856L18.192 24.7624C18.4538 24.4972 18.7646 24.3646 19.1245 24.3646C19.4844 24.3646 19.7952 24.4972 20.0569 24.7624L24.3592 29.1215L34.9431 18.3978C35.2048 18.1326 35.5156 18 35.8755 18C36.2354 18 36.5462 18.1326 36.808 18.3978L38.6074 20.221C38.8691 20.4862 39 20.8011 39 21.1657C39 21.5304 38.8691 21.8453 38.6074 22.1105Z" fill="#A55786"/>
<path d="M66.628 26.16H70.03V15.828H72.64V12.84H64V15.828H66.628V26.16Z" fill="url(#paint1_linear_605_6523)"/>
<path d="M72.8875 19.662C72.8875 23.082 75.6955 26.412 79.8895 26.412C84.0295 26.412 86.9455 23.208 86.9455 19.5C86.9455 15.792 84.0115 12.588 79.9075 12.588C76.2355 12.588 72.8875 15.288 72.8875 19.644V19.662ZM76.2895 19.464C76.2895 17.592 77.5675 15.576 79.9255 15.576C82.3735 15.576 83.5435 17.79 83.5435 19.518C83.5435 21.228 82.3735 23.424 79.9615 23.424C77.6755 23.424 76.2895 21.516 76.2895 19.482V19.464Z" fill="url(#paint2_linear_605_6523)"/>
<path d="M88.774 26.16H93.436C98.494 26.16 100.294 23.1 100.294 19.464C100.294 18.006 99.988 16.584 99.07 15.324C97.342 12.84 94.678 12.84 93.184 12.84H88.774V26.16ZM92.176 15.828H93.652C95.164 15.828 95.848 16.458 96.244 17.052C96.73 17.808 96.892 18.762 96.892 19.518C96.892 21.408 96.172 23.172 93.634 23.172H92.176V15.828Z" fill="url(#paint3_linear_605_6523)"/>
<path d="M101.557 19.662C101.557 23.082 104.365 26.412 108.559 26.412C112.699 26.412 115.615 23.208 115.615 19.5C115.615 15.792 112.681 12.588 108.577 12.588C104.905 12.588 101.557 15.288 101.557 19.644V19.662ZM104.959 19.464C104.959 17.592 106.237 15.576 108.595 15.576C111.043 15.576 112.213 17.79 112.213 19.518C112.213 21.228 111.043 23.424 108.631 23.424C106.345 23.424 104.959 21.516 104.959 19.482V19.464Z" fill="url(#paint4_linear_605_6523)"/>
<path d="M65.116 41.16H72.46V38.172H68.518V27.84H65.116V41.16Z" fill="url(#paint5_linear_605_6523)"/>
<path d="M74.8775 41.16H78.2795V27.84H74.8775V41.16Z" fill="url(#paint6_linear_605_6523)"/>
<path d="M80.8398 36.75C80.7498 39.36 82.1538 41.412 85.6458 41.412C89.1738 41.412 90.2898 39.27 90.2898 37.146C90.2898 35.598 89.6598 34.446 87.1758 33.33C84.7818 32.25 84.4218 32.088 84.4218 31.476C84.4218 30.846 84.9978 30.432 85.5918 30.432C86.6358 30.432 86.7438 31.278 86.8158 31.728H90.1818C90.1278 28.524 87.5358 27.588 85.6998 27.588C83.4678 27.588 81.0378 29.01 81.0378 31.692C81.0378 34.194 83.3598 35.13 84.2958 35.508C86.3478 36.372 86.9058 36.588 86.9058 37.29C86.9058 37.902 86.4198 38.568 85.6098 38.568C85.1778 38.568 84.2238 38.298 84.2238 36.75H80.8398Z" fill="url(#paint7_linear_605_6523)"/>
<path d="M94.4162 41.16H97.8182V30.828H100.428V27.84H91.7882V30.828H94.4162V41.16Z" fill="url(#paint8_linear_605_6523)"/>
<path d="M101.576 34.662C101.576 38.082 104.384 41.412 108.578 41.412C112.718 41.412 115.634 38.208 115.634 34.5C115.634 30.792 112.7 27.588 108.596 27.588C104.924 27.588 101.576 30.288 101.576 34.644V34.662ZM104.978 34.464C104.978 32.592 106.256 30.576 108.614 30.576C111.062 30.576 112.232 32.79 112.232 34.518C112.232 36.228 111.062 38.424 108.65 38.424C106.364 38.424 104.978 36.516 104.978 34.482V34.464Z" fill="url(#paint9_linear_605_6523)"/>
<defs>
<linearGradient id="paint0_linear_605_6523" x1="0" y1="0" x2="54" y2="54" gradientUnits="userSpaceOnUse">
<stop stop-color="#E34CA7"/>
<stop offset="1" stop-color="#7B5D6F"/>
</linearGradient>
<linearGradient id="paint1_linear_605_6523" x1="63.8201" y1="14.16" x2="112.761" y2="49.7425" gradientUnits="userSpaceOnUse">
<stop stop-color="#E34CA7"/>
<stop offset="1" stop-color="#9D3875"/>
<stop offset="1" stop-color="#7B5D6F"/>
</linearGradient>
<linearGradient id="paint2_linear_605_6523" x1="63.8201" y1="14.16" x2="112.761" y2="49.7425" gradientUnits="userSpaceOnUse">
<stop stop-color="#E34CA7"/>
<stop offset="1" stop-color="#9D3875"/>
<stop offset="1" stop-color="#7B5D6F"/>
</linearGradient>
<linearGradient id="paint3_linear_605_6523" x1="63.8201" y1="14.16" x2="112.761" y2="49.7425" gradientUnits="userSpaceOnUse">
<stop stop-color="#E34CA7"/>
<stop offset="1" stop-color="#9D3875"/>
<stop offset="1" stop-color="#7B5D6F"/>
</linearGradient>
<linearGradient id="paint4_linear_605_6523" x1="63.8201" y1="14.16" x2="112.761" y2="49.7425" gradientUnits="userSpaceOnUse">
<stop stop-color="#E34CA7"/>
<stop offset="1" stop-color="#9D3875"/>
<stop offset="1" stop-color="#7B5D6F"/>
</linearGradient>
<linearGradient id="paint5_linear_605_6523" x1="63.8201" y1="14.16" x2="112.761" y2="49.7425" gradientUnits="userSpaceOnUse">
<stop stop-color="#E34CA7"/>
<stop offset="1" stop-color="#9D3875"/>
<stop offset="1" stop-color="#7B5D6F"/>
</linearGradient>
<linearGradient id="paint6_linear_605_6523" x1="63.8201" y1="14.16" x2="112.761" y2="49.7425" gradientUnits="userSpaceOnUse">
<stop stop-color="#E34CA7"/>
<stop offset="1" stop-color="#9D3875"/>
<stop offset="1" stop-color="#7B5D6F"/>
</linearGradient>
<linearGradient id="paint7_linear_605_6523" x1="63.8201" y1="14.16" x2="112.761" y2="49.7425" gradientUnits="userSpaceOnUse">
<stop stop-color="#E34CA7"/>
<stop offset="1" stop-color="#9D3875"/>
<stop offset="1" stop-color="#7B5D6F"/>
</linearGradient>
<linearGradient id="paint8_linear_605_6523" x1="63.8201" y1="14.16" x2="112.761" y2="49.7425" gradientUnits="userSpaceOnUse">
<stop stop-color="#E34CA7"/>
<stop offset="1" stop-color="#9D3875"/>
<stop offset="1" stop-color="#7B5D6F"/>
</linearGradient>
<linearGradient id="paint9_linear_605_6523" x1="63.8201" y1="14.16" x2="112.761" y2="49.7425" gradientUnits="userSpaceOnUse">
<stop stop-color="#E34CA7"/>
<stop offset="1" stop-color="#9D3875"/>
<stop offset="1" stop-color="#7B5D6F"/>
</linearGradient>
</defs>
</svg>
